<svg xmlns="http://www.w3.org/2000/svg" width="900" height="610" viewBox="0 0 900 610">
<rect width="100%" height="100%" fill="#ffffff"/>
<text x="450.0" y="34" text-anchor="middle" font-size="22" font-weight="700" fill="#111827">岗位 JD 方向分布</text>
<text x="178" y="93.1" text-anchor="end" font-size="15" fill="#374151">AI应用</text>
<rect x="190" y="70" width="335" height="34" rx="5" fill="#2563eb"/>
<text x="533" y="93.1" font-size="15" fill="#111827">7</text>
<text x="178" y="141.1" text-anchor="end" font-size="15" fill="#374151">AI全栈</text>
<rect x="190" y="118" width="47" height="34" rx="5" fill="#059669"/>
<text x="245" y="141.1" font-size="15" fill="#111827">1</text>
<text x="178" y="189.1" text-anchor="end" font-size="15" fill="#374151">AI后端</text>
<rect x="190" y="166" width="335" height="34" rx="5" fill="#dc2626"/>
<text x="533" y="189.1" font-size="15" fill="#111827">7</text>
<text x="178" y="237.1" text-anchor="end" font-size="15" fill="#374151">AI Infra</text>
<rect x="190" y="214" width="239" height="34" rx="5" fill="#7c3aed"/>
<text x="437" y="237.1" font-size="15" fill="#111827">5</text>
<text x="178" y="285.1" text-anchor="end" font-size="15" fill="#374151">算法</text>
<rect x="190" y="262" width="143" height="34" rx="5" fill="#ea580c"/>
<text x="341" y="285.1" font-size="15" fill="#111827">3</text>
<text x="178" y="333.1" text-anchor="end" font-size="15" fill="#374151">LLM算法</text>
<rect x="190" y="310" width="670" height="34" rx="5" fill="#0891b2"/>
<text x="868" y="333.1" font-size="15" fill="#111827">14</text>
<text x="178" y="381.1" text-anchor="end" font-size="15" fill="#374151">后端</text>
<rect x="190" y="358" width="335" height="34" rx="5" fill="#4f46e5"/>
<text x="533" y="381.1" font-size="15" fill="#111827">7</text>
<text x="178" y="429.1" text-anchor="end" font-size="15" fill="#374151">数据后端</text>
<rect x="190" y="406" width="191" height="34" rx="5" fill="#65a30d"/>
<text x="389" y="429.1" font-size="15" fill="#111827">4</text>
<text x="178" y="477.1" text-anchor="end" font-size="15" fill="#374151">平台后端</text>
<rect x="190" y="454" width="47" height="34" rx="5" fill="#be123c"/>
<text x="245" y="477.1" font-size="15" fill="#111827">1</text>
<text x="178" y="525.1" text-anchor="end" font-size="15" fill="#374151">LLM应用</text>
<rect x="190" y="502" width="47" height="34" rx="5" fill="#2563eb"/>
<text x="245" y="525.1" font-size="15" fill="#111827">1</text>
</svg>
