<svg xmlns="http://www.w3.org/2000/svg" width="900" height="514" viewBox="0 0 900 514">
<rect width="100%" height="100%" fill="#ffffff"/>
<text x="450.0" y="34" text-anchor="middle" font-size="22" font-weight="700" fill="#111827">用户痛点标签分布</text>
<text x="178" y="93.1" text-anchor="end" font-size="15" fill="#374151">项目深挖</text>
<rect x="190" y="70" width="670" height="34" rx="5" fill="#2563eb"/>
<text x="868" y="93.1" font-size="15" fill="#111827">114</text>
<text x="178" y="141.1" text-anchor="end" font-size="15" fill="#374151">八股基础</text>
<rect x="190" y="118" width="558" height="34" rx="5" fill="#059669"/>
<text x="756" y="141.1" font-size="15" fill="#111827">95</text>
<text x="178" y="189.1" text-anchor="end" font-size="15" fill="#374151">算法/手撕</text>
<rect x="190" y="166" width="540" height="34" rx="5" fill="#dc2626"/>
<text x="738" y="189.1" font-size="15" fill="#111827">92</text>
<text x="178" y="237.1" text-anchor="end" font-size="15" fill="#374151">LLM专项</text>
<rect x="190" y="214" width="393" height="34" rx="5" fill="#7c3aed"/>
<text x="591" y="237.1" font-size="15" fill="#111827">67</text>
<text x="178" y="285.1" text-anchor="end" font-size="15" fill="#374151">追问压力</text>
<rect x="190" y="262" width="393" height="34" rx="5" fill="#ea580c"/>
<text x="591" y="285.1" font-size="15" fill="#111827">67</text>
<text x="178" y="333.1" text-anchor="end" font-size="15" fill="#374151">焦虑/不确定</text>
<rect x="190" y="310" width="282" height="34" rx="5" fill="#0891b2"/>
<text x="480" y="333.1" font-size="15" fill="#111827">48</text>
<text x="178" y="381.1" text-anchor="end" font-size="15" fill="#374151">复盘缺口</text>
<rect x="190" y="358" width="152" height="34" rx="5" fill="#4f46e5"/>
<text x="350" y="381.1" font-size="15" fill="#111827">26</text>
<text x="178" y="429.1" text-anchor="end" font-size="15" fill="#374151">工程真实性</text>
<rect x="190" y="406" width="52" height="34" rx="5" fill="#65a30d"/>
<text x="250" y="429.1" font-size="15" fill="#111827">9</text>
</svg>
