<svg xmlns="http://www.w3.org/2000/svg" width="980" height="450" viewBox="0 0 980 450">
<rect width="100%" height="100%" fill="#ffffff"/>
<text x="490.0" y="35" text-anchor="middle" font-size="22" font-weight="700" fill="#111827">用户问题优先级矩阵</text>
<text x="269.0" y="70" text-anchor="middle" font-size="13" fill="#374151">痛感</text>
<text x="387.0" y="70" text-anchor="middle" font-size="13" fill="#374151">证据</text>
<text x="505.0" y="70" text-anchor="middle" font-size="13" fill="#374151">可行性</text>
<text x="623.0" y="70" text-anchor="middle" font-size="13" fill="#374151">MVP优先</text>
<text x="196" y="123.6" text-anchor="end" font-size="14" fill="#374151">项目深挖崩盘</text>
<rect x="210" y="90" width="115" height="55" fill="#2563eb" opacity="0.90"/>
<text x="269.0" y="124.8" text-anchor="middle" font-size="16" font-weight="700" fill="#111827">5</text>
<rect x="328" y="90" width="115" height="55" fill="#2563eb" opacity="0.90"/>
<text x="387.0" y="124.8" text-anchor="middle" font-size="16" font-weight="700" fill="#111827">5</text>
<rect x="446" y="90" width="115" height="55" fill="#2563eb" opacity="0.90"/>
<text x="505.0" y="124.8" text-anchor="middle" font-size="16" font-weight="700" fill="#111827">5</text>
<rect x="564" y="90" width="115" height="55" fill="#2563eb" opacity="0.90"/>
<text x="623.0" y="124.8" text-anchor="middle" font-size="16" font-weight="700" fill="#111827">5</text>
<text x="196" y="181.6" text-anchor="end" font-size="14" fill="#374151">复盘不可执行</text>
<rect x="210" y="148" width="115" height="55" fill="#2563eb" opacity="0.90"/>
<text x="269.0" y="182.8" text-anchor="middle" font-size="16" font-weight="700" fill="#111827">5</text>
<rect x="328" y="148" width="115" height="55" fill="#2563eb" opacity="0.74"/>
<text x="387.0" y="182.8" text-anchor="middle" font-size="16" font-weight="700" fill="#111827">4</text>
<rect x="446" y="148" width="115" height="55" fill="#2563eb" opacity="0.90"/>
<text x="505.0" y="182.8" text-anchor="middle" font-size="16" font-weight="700" fill="#111827">5</text>
<rect x="564" y="148" width="115" height="55" fill="#2563eb" opacity="0.90"/>
<text x="623.0" y="182.8" text-anchor="middle" font-size="16" font-weight="700" fill="#111827">5</text>
<text x="196" y="239.6" text-anchor="end" font-size="14" fill="#374151">八股项目割裂</text>
<rect x="210" y="206" width="115" height="55" fill="#2563eb" opacity="0.74"/>
<text x="269.0" y="240.8" text-anchor="middle" font-size="16" font-weight="700" fill="#111827">4</text>
<rect x="328" y="206" width="115" height="55" fill="#2563eb" opacity="0.90"/>
<text x="387.0" y="240.8" text-anchor="middle" font-size="16" font-weight="700" fill="#111827">5</text>
<rect x="446" y="206" width="115" height="55" fill="#2563eb" opacity="0.90"/>
<text x="505.0" y="240.8" text-anchor="middle" font-size="16" font-weight="700" fill="#111827">5</text>
<rect x="564" y="206" width="115" height="55" fill="#2563eb" opacity="0.74"/>
<text x="623.0" y="240.8" text-anchor="middle" font-size="16" font-weight="700" fill="#111827">4</text>
<text x="196" y="297.6" text-anchor="end" font-size="14" fill="#374151">AI项目可信度</text>
<rect x="210" y="264" width="115" height="55" fill="#2563eb" opacity="0.74"/>
<text x="269.0" y="298.8" text-anchor="middle" font-size="16" font-weight="700" fill="#111827">4</text>
<rect x="328" y="264" width="115" height="55" fill="#2563eb" opacity="0.74"/>
<text x="387.0" y="298.8" text-anchor="middle" font-size="16" font-weight="700" fill="#111827">4</text>
<rect x="446" y="264" width="115" height="55" fill="#2563eb" opacity="0.74"/>
<text x="505.0" y="298.8" text-anchor="middle" font-size="16" font-weight="700" fill="#111827">4</text>
<rect x="564" y="264" width="115" height="55" fill="#2563eb" opacity="0.74"/>
<text x="623.0" y="298.8" text-anchor="middle" font-size="16" font-weight="700" fill="#111827">4</text>
<text x="196" y="355.6" text-anchor="end" font-size="14" fill="#374151">面试焦虑</text>
<rect x="210" y="322" width="115" height="55" fill="#2563eb" opacity="0.74"/>
<text x="269.0" y="356.8" text-anchor="middle" font-size="16" font-weight="700" fill="#111827">4</text>
<rect x="328" y="322" width="115" height="55" fill="#2563eb" opacity="0.74"/>
<text x="387.0" y="356.8" text-anchor="middle" font-size="16" font-weight="700" fill="#111827">4</text>
<rect x="446" y="322" width="115" height="55" fill="#2563eb" opacity="0.59"/>
<text x="505.0" y="356.8" text-anchor="middle" font-size="16" font-weight="700" fill="#111827">3</text>
<rect x="564" y="322" width="115" height="55" fill="#2563eb" opacity="0.59"/>
<text x="623.0" y="356.8" text-anchor="middle" font-size="16" font-weight="700" fill="#111827">3</text>
</svg>
