<svg xmlns="http://www.w3.org/2000/svg" width="980" height="450" viewBox="0 0 980 450">
<rect width="100%" height="100%" fill="#ffffff"/>
<text x="490.0" y="35" text-anchor="middle" font-size="22" font-weight="700" fill="#111827">项目类型与被问穿风险矩阵</text>
<text x="269.0" y="70" text-anchor="middle" font-size="13" fill="#374151">同质化</text>
<text x="387.0" y="70" text-anchor="middle" font-size="13" fill="#374151">个人贡献</text>
<text x="505.0" y="70" text-anchor="middle" font-size="13" fill="#374151">指标缺失</text>
<text x="623.0" y="70" text-anchor="middle" font-size="13" fill="#374151">失败路径</text>
<text x="741.0" y="70" text-anchor="middle" font-size="13" fill="#374151">岗位匹配</text>
<text x="196" y="123.6" text-anchor="end" font-size="14" fill="#374151">管理/商城/秒杀</text>
<rect x="210" y="90" width="115" height="55" fill="#2563eb" opacity="0.90"/>
<text x="269.0" y="124.8" text-anchor="middle" font-size="16" font-weight="700" fill="#111827">5</text>
<rect x="328" y="90" width="115" height="55" fill="#2563eb" opacity="0.74"/>
<text x="387.0" y="124.8" text-anchor="middle" font-size="16" font-weight="700" fill="#111827">4</text>
<rect x="446" y="90" width="115" height="55" fill="#2563eb" opacity="0.74"/>
<text x="505.0" y="124.8" text-anchor="middle" font-size="16" font-weight="700" fill="#111827">4</text>
<rect x="564" y="90" width="115" height="55" fill="#2563eb" opacity="0.74"/>
<text x="623.0" y="124.8" text-anchor="middle" font-size="16" font-weight="700" fill="#111827">4</text>
<rect x="682" y="90" width="115" height="55" fill="#2563eb" opacity="0.59"/>
<text x="741.0" y="124.8" text-anchor="middle" font-size="16" font-weight="700" fill="#111827">3</text>
<text x="196" y="181.6" text-anchor="end" font-size="14" fill="#374151">RAG/知识库</text>
<rect x="210" y="148" width="115" height="55" fill="#2563eb" opacity="0.74"/>
<text x="269.0" y="182.8" text-anchor="middle" font-size="16" font-weight="700" fill="#111827">4</text>
<rect x="328" y="148" width="115" height="55" fill="#2563eb" opacity="0.74"/>
<text x="387.0" y="182.8" text-anchor="middle" font-size="16" font-weight="700" fill="#111827">4</text>
<rect x="446" y="148" width="115" height="55" fill="#2563eb" opacity="0.90"/>
<text x="505.0" y="182.8" text-anchor="middle" font-size="16" font-weight="700" fill="#111827">5</text>
<rect x="564" y="148" width="115" height="55" fill="#2563eb" opacity="0.90"/>
<text x="623.0" y="182.8" text-anchor="middle" font-size="16" font-weight="700" fill="#111827">5</text>
<rect x="682" y="148" width="115" height="55" fill="#2563eb" opacity="0.90"/>
<text x="741.0" y="182.8" text-anchor="middle" font-size="16" font-weight="700" fill="#111827">5</text>
<text x="196" y="239.6" text-anchor="end" font-size="14" fill="#374151">Agent/Workflow</text>
<rect x="210" y="206" width="115" height="55" fill="#2563eb" opacity="0.59"/>
<text x="269.0" y="240.8" text-anchor="middle" font-size="16" font-weight="700" fill="#111827">3</text>
<rect x="328" y="206" width="115" height="55" fill="#2563eb" opacity="0.90"/>
<text x="387.0" y="240.8" text-anchor="middle" font-size="16" font-weight="700" fill="#111827">5</text>
<rect x="446" y="206" width="115" height="55" fill="#2563eb" opacity="0.74"/>
<text x="505.0" y="240.8" text-anchor="middle" font-size="16" font-weight="700" fill="#111827">4</text>
<rect x="564" y="206" width="115" height="55" fill="#2563eb" opacity="0.90"/>
<text x="623.0" y="240.8" text-anchor="middle" font-size="16" font-weight="700" fill="#111827">5</text>
<rect x="682" y="206" width="115" height="55" fill="#2563eb" opacity="0.90"/>
<text x="741.0" y="240.8" text-anchor="middle" font-size="16" font-weight="700" fill="#111827">5</text>
<text x="196" y="297.6" text-anchor="end" font-size="14" fill="#374151">AI Infra</text>
<rect x="210" y="264" width="115" height="55" fill="#2563eb" opacity="0.43"/>
<text x="269.0" y="298.8" text-anchor="middle" font-size="16" font-weight="700" fill="#111827">2</text>
<rect x="328" y="264" width="115" height="55" fill="#2563eb" opacity="0.74"/>
<text x="387.0" y="298.8" text-anchor="middle" font-size="16" font-weight="700" fill="#111827">4</text>
<rect x="446" y="264" width="115" height="55" fill="#2563eb" opacity="0.90"/>
<text x="505.0" y="298.8" text-anchor="middle" font-size="16" font-weight="700" fill="#111827">5</text>
<rect x="564" y="264" width="115" height="55" fill="#2563eb" opacity="0.74"/>
<text x="623.0" y="298.8" text-anchor="middle" font-size="16" font-weight="700" fill="#111827">4</text>
<rect x="682" y="264" width="115" height="55" fill="#2563eb" opacity="0.74"/>
<text x="741.0" y="298.8" text-anchor="middle" font-size="16" font-weight="700" fill="#111827">4</text>
<text x="196" y="355.6" text-anchor="end" font-size="14" fill="#374151">科研/算法</text>
<rect x="210" y="322" width="115" height="55" fill="#2563eb" opacity="0.59"/>
<text x="269.0" y="356.8" text-anchor="middle" font-size="16" font-weight="700" fill="#111827">3</text>
<rect x="328" y="322" width="115" height="55" fill="#2563eb" opacity="0.74"/>
<text x="387.0" y="356.8" text-anchor="middle" font-size="16" font-weight="700" fill="#111827">4</text>
<rect x="446" y="322" width="115" height="55" fill="#2563eb" opacity="0.74"/>
<text x="505.0" y="356.8" text-anchor="middle" font-size="16" font-weight="700" fill="#111827">4</text>
<rect x="564" y="322" width="115" height="55" fill="#2563eb" opacity="0.59"/>
<text x="623.0" y="356.8" text-anchor="middle" font-size="16" font-weight="700" fill="#111827">3</text>
<rect x="682" y="322" width="115" height="55" fill="#2563eb" opacity="0.74"/>
<text x="741.0" y="356.8" text-anchor="middle" font-size="16" font-weight="700" fill="#111827">4</text>
</svg>
