<svg xmlns="http://www.w3.org/2000/svg" width="900" height="610" viewBox="0 0 900 610">
<rect width="100%" height="100%" fill="#ffffff"/>
<text x="450.0" y="34" text-anchor="middle" font-size="22" font-weight="700" fill="#111827">追问链样本主题分布</text>
<text x="178" y="93.1" text-anchor="end" font-size="15" fill="#374151">AI应用</text>
<rect x="190" y="70" width="670" height="34" rx="5" fill="#2563eb"/>
<text x="868" y="93.1" font-size="15" fill="#111827">53</text>
<text x="178" y="141.1" text-anchor="end" font-size="15" fill="#374151">面试官样本</text>
<rect x="190" y="118" width="670" height="34" rx="5" fill="#059669"/>
<text x="868" y="141.1" font-size="15" fill="#111827">53</text>
<text x="178" y="189.1" text-anchor="end" font-size="15" fill="#374151">算法手撕</text>
<rect x="190" y="166" width="379" height="34" rx="5" fill="#dc2626"/>
<text x="577" y="189.1" font-size="15" fill="#111827">30</text>
<text x="178" y="237.1" text-anchor="end" font-size="15" fill="#374151">开源题库</text>
<rect x="190" y="214" width="303" height="34" rx="5" fill="#7c3aed"/>
<text x="501" y="237.1" font-size="15" fill="#111827">24</text>
<text x="178" y="285.1" text-anchor="end" font-size="15" fill="#374151">后端追问</text>
<rect x="190" y="262" width="202" height="34" rx="5" fill="#ea580c"/>
<text x="400" y="285.1" font-size="15" fill="#111827">16</text>
<text x="178" y="333.1" text-anchor="end" font-size="15" fill="#374151">面试官视角</text>
<rect x="190" y="310" width="139" height="34" rx="5" fill="#0891b2"/>
<text x="337" y="333.1" font-size="15" fill="#111827">11</text>
<text x="178" y="381.1" text-anchor="end" font-size="15" fill="#374151">老师/老板</text>
<rect x="190" y="358" width="88" height="34" rx="5" fill="#4f46e5"/>
<text x="286" y="381.1" font-size="15" fill="#111827">7</text>
<text x="178" y="429.1" text-anchor="end" font-size="15" fill="#374151">AI Infra</text>
<rect x="190" y="406" width="63" height="34" rx="5" fill="#65a30d"/>
<text x="261" y="429.1" font-size="15" fill="#111827">5</text>
<text x="178" y="477.1" text-anchor="end" font-size="15" fill="#374151">LLM算法</text>
<rect x="190" y="454" width="37" height="34" rx="5" fill="#be123c"/>
<text x="235" y="477.1" font-size="15" fill="#111827">3</text>
<text x="178" y="525.1" text-anchor="end" font-size="15" fill="#374151">前端/全栈</text>
<rect x="190" y="502" width="25" height="34" rx="5" fill="#2563eb"/>
<text x="223" y="525.1" font-size="15" fill="#111827">2</text>
</svg>
